<svg width="19" height="20" viewBox="0 0 19 20" fill="none" xmlns="http://www.w3.org/2000/svg">
<g clip-path="url(#clip0_1_158)">
<path d="M9.50021 18.8951C4.42421 18.8951 0.320206 14.7911 0.320206 9.71507C0.320206 4.63907 4.42421 0.535065 9.50021 0.535065C14.5762 0.535065 18.6802 4.63907 18.6802 9.71507C18.6802 14.7911 14.5762 18.8951 9.50021 18.8951ZM9.50021 1.61506C5.01821 1.61506 1.40021 5.23306 1.40021 9.71507C1.40021 14.1971 5.01821 17.8151 9.50021 17.8151C13.9822 17.8151 17.6002 14.1971 17.6002 9.71507C17.6002 5.23306 13.9822 1.61506 9.50021 1.61506Z" fill="#28A6FD"/>
<path d="M4.63983 9.1749H14.3598V10.2549H4.63983V9.1749Z" fill="#28A6FD"/>
<path d="M8.96005 4.85468H10.0401V14.5747H8.96005V4.85468Z" fill="#28A6FD"/>
</g>
<defs>
<clipPath id="clip0_1_158">
<rect width="19" height="19" fill="white" transform="translate(0 0.214844)"/>
</clipPath>
</defs>
</svg>
