<svg width="20" height="22" viewBox="0 0 20 22" fill="none" xmlns="http://www.w3.org/2000/svg">
<path d="M17.5 18.7679L13.8808 15.0195M13.8808 15.0195C14.4999 14.3783 14.991 13.6171 15.326 12.7793C15.661 11.9416 15.8335 11.0437 15.8335 10.1369C15.8335 9.23016 15.6611 8.33227 15.326 7.49453C14.991 6.65678 14.4999 5.89559 13.8808 5.2544C13.2617 4.61322 12.5268 4.10461 11.7179 3.7576C10.9091 3.4106 10.0422 3.23199 9.16666 3.23199C8.29115 3.23199 7.42422 3.4106 6.61537 3.7576C5.80651 4.10461 5.07156 4.61322 4.45249 5.2544C3.20221 6.54933 2.49982 8.30563 2.49982 10.1369C2.49982 11.9682 3.20221 13.7245 4.45249 15.0195C5.70276 16.3144 7.3985 17.0419 9.16666 17.0419C10.9348 17.0419 12.6305 16.3144 13.8808 15.0195Z" stroke="#717171" stroke-width="2" stroke-linecap="round" stroke-linejoin="round"/>
</svg>
