<svg width="24" height="25" viewBox="0 0 24 25" fill="none" xmlns="http://www.w3.org/2000/svg">
<path d="M9.99954 6.49869H13.9995C13.9995 5.96825 13.7888 5.45955 13.4138 5.08447C13.0387 4.7094 12.53 4.49869 11.9995 4.49869C11.4691 4.49869 10.9604 4.7094 10.5853 5.08447C10.2103 5.45955 9.99954 5.96825 9.99954 6.49869ZM7.99954 6.49869C7.99954 5.43782 8.42097 4.42041 9.17111 3.67026C9.92126 2.92012 10.9387 2.49869 11.9995 2.49869C13.0604 2.49869 14.0778 2.92012 14.828 3.67026C15.5781 4.42041 15.9995 5.43782 15.9995 6.49869H20.9995C21.2648 6.49869 21.5191 6.60404 21.7066 6.79158C21.8942 6.97912 21.9995 7.23347 21.9995 7.49869C21.9995 7.7639 21.8942 8.01826 21.7066 8.20579C21.5191 8.39333 21.2648 8.49869 20.9995 8.49869H20.1175L19.2315 18.8387C19.1464 19.8372 18.6895 20.7673 17.9514 21.445C17.2133 22.1228 16.2476 22.4988 15.2455 22.4987H8.75354C7.75145 22.4988 6.78582 22.1228 6.04769 21.445C5.30957 20.7673 4.85272 19.8372 4.76754 18.8387L3.88154 8.49869H2.99954C2.73433 8.49869 2.47997 8.39333 2.29244 8.20579C2.1049 8.01826 1.99954 7.7639 1.99954 7.49869C1.99954 7.23347 2.1049 6.97912 2.29244 6.79158C2.47997 6.60404 2.73433 6.49869 2.99954 6.49869H7.99954ZM14.9995 12.4987C14.9995 12.2335 14.8942 11.9791 14.7066 11.7916C14.5191 11.604 14.2648 11.4987 13.9995 11.4987C13.7343 11.4987 13.48 11.604 13.2924 11.7916C13.1049 11.9791 12.9995 12.2335 12.9995 12.4987V16.4987C12.9995 16.7639 13.1049 17.0183 13.2924 17.2058C13.48 17.3933 13.7343 17.4987 13.9995 17.4987C14.2648 17.4987 14.5191 17.3933 14.7066 17.2058C14.8942 17.0183 14.9995 16.7639 14.9995 16.4987V12.4987ZM9.99954 11.4987C10.2648 11.4987 10.5191 11.604 10.7066 11.7916C10.8942 11.9791 10.9995 12.2335 10.9995 12.4987V16.4987C10.9995 16.7639 10.8942 17.0183 10.7066 17.2058C10.5191 17.3933 10.2648 17.4987 9.99954 17.4987C9.73433 17.4987 9.47997 17.3933 9.29244 17.2058C9.1049 17.0183 8.99954 16.7639 8.99954 16.4987V12.4987C8.99954 12.2335 9.1049 11.9791 9.29244 11.7916C9.47997 11.604 9.73433 11.4987 9.99954 11.4987ZM6.75954 18.6687C6.80215 19.1681 7.03071 19.6333 7.39999 19.9722C7.76926 20.3111 8.25232 20.499 8.75354 20.4987H15.2455C15.7464 20.4985 16.229 20.3104 16.5978 19.9715C16.9667 19.6327 17.195 19.1677 17.2375 18.6687L18.1095 8.49869H5.88954L6.75954 18.6687Z" fill="#E91F29"/>
</svg>
