<svg width="12" height="13" viewBox="0 0 12 13" fill="none" xmlns="http://www.w3.org/2000/svg">
<circle cx="6" cy="6.21484" r="6" fill="#F3F3F3"/>
<g clip-path="url(#clip0_1_166)">
<path d="M5.33366 4.21517H6.66699C6.66699 4.03836 6.59675 3.86879 6.47173 3.74376C6.34671 3.61874 6.17714 3.5485 6.00033 3.5485C5.82351 3.5485 5.65395 3.61874 5.52892 3.74376C5.4039 3.86879 5.33366 4.03836 5.33366 4.21517ZM4.66699 4.21517C4.66699 3.86155 4.80747 3.52241 5.05752 3.27236C5.30756 3.02231 5.6467 2.88184 6.00033 2.88184C6.35395 2.88184 6.69309 3.02231 6.94313 3.27236C7.19318 3.52241 7.33366 3.86155 7.33366 4.21517H9.00033C9.08873 4.21517 9.17352 4.25029 9.23603 4.3128C9.29854 4.37531 9.33366 4.4601 9.33366 4.5485C9.33366 4.63691 9.29854 4.72169 9.23603 4.7842C9.17352 4.84672 9.08873 4.88184 9.00033 4.88184H8.70633L8.41099 8.3285C8.3826 8.66132 8.23032 8.97136 7.98428 9.19728C7.73823 9.4232 7.41636 9.54854 7.08233 9.5485H4.91833C4.5843 9.54854 4.26242 9.4232 4.01638 9.19728C3.77033 8.97136 3.61805 8.66132 3.58966 8.3285L3.29433 4.88184H3.00033C2.91192 4.88184 2.82714 4.84672 2.76462 4.7842C2.70211 4.72169 2.66699 4.63691 2.66699 4.5485C2.66699 4.4601 2.70211 4.37531 2.76462 4.3128C2.82714 4.25029 2.91192 4.21517 3.00033 4.21517H4.66699ZM7.00033 6.21517C7.00033 6.12676 6.96521 6.04198 6.90269 5.97947C6.84018 5.91695 6.7554 5.88184 6.66699 5.88184C6.57859 5.88184 6.4938 5.91695 6.43129 5.97947C6.36878 6.04198 6.33366 6.12676 6.33366 6.21517V7.5485C6.33366 7.63691 6.36878 7.72169 6.43129 7.78421C6.4938 7.84672 6.57859 7.88184 6.66699 7.88184C6.7554 7.88184 6.84018 7.84672 6.90269 7.78421C6.96521 7.72169 7.00033 7.63691 7.00033 7.5485V6.21517ZM5.33366 5.88184C5.42206 5.88184 5.50685 5.91695 5.56936 5.97947C5.63187 6.04198 5.66699 6.12676 5.66699 6.21517V7.5485C5.66699 7.63691 5.63187 7.72169 5.56936 7.78421C5.50685 7.84672 5.42206 7.88184 5.33366 7.88184C5.24525 7.88184 5.16047 7.84672 5.09796 7.78421C5.03544 7.72169 5.00033 7.63691 5.00033 7.5485V6.21517C5.00033 6.12676 5.03544 6.04198 5.09796 5.97947C5.16047 5.91695 5.24525 5.88184 5.33366 5.88184ZM4.25366 8.27184C4.26786 8.4383 4.34405 8.59337 4.46714 8.70634C4.59023 8.81931 4.75125 8.88194 4.91833 8.88184H7.08233C7.24928 8.88177 7.41014 8.81907 7.53309 8.70611C7.65604 8.59316 7.73213 8.43819 7.74633 8.27184L8.03699 4.88184H3.96366L4.25366 8.27184Z" fill="#E91F29"/>
</g>
<defs>
<clipPath id="clip0_1_166">
<rect width="8" height="8" fill="white" transform="translate(2 2.21484)"/>
</clipPath>
</defs>
</svg>
